<?xml version="1.0" encoding="UTF-8" standalone="no"?>
<!DOCTYPE svg PUBLIC "-//W3C//DTD SVG 1.1//EN" "http://www.w3.org/Graphics/SVG/1.1/DTD/svg11.dtd">
<svg width="100%" height="100%" viewBox="0 0 1319 1319" version="1.1" xmlns="http://www.w3.org/2000/svg" xmlns:xlink="http://www.w3.org/1999/xlink" xml:space="preserve" xmlns:serif="http://www.serif.com/" style="fill-rule:evenodd;clip-rule:evenodd;stroke-linecap:round;stroke-linejoin:round;stroke-miterlimit:1.5;">
    <g id="Artboard1" transform="matrix(0.987278,0,0,0.884258,-188.476909,-113.627767)">
        <rect x="190.906" y="128.501" width="1334.994" height="1491.03" style="fill:none;"/>
        <clipPath id="_clip1">
            <rect x="190.906" y="128.501" width="1334.994" height="1491.03"/>
        </clipPath>
        <g clip-path="url(#_clip1)">
            <g transform="matrix(0,2.796949,-2.149454,0,2555.497887,-3665.533364)">
                <rect x="1715.984" y="982.598" width="40.368" height="64.707" style="fill:rgb(66,184,131);stroke:rgb(66,184,131);stroke-width:1.21px;"/>
            </g>
            <g transform="matrix(0,2.796949,-2.155052,0,2617.617683,-3562.581239)">
                <rect x="1715.984" y="982.598" width="40.368" height="64.707" style="fill:rgb(66,184,131);stroke:rgb(66,184,131);stroke-width:1.21px;"/>
            </g>
            <g transform="matrix(0,2.796949,-4.412269,0,4910.108011,-3461.435334)">
                <rect x="1715.984" y="982.598" width="40.368" height="64.707" style="fill:rgb(66,184,131);stroke:rgb(66,184,131);stroke-width:0.79px;"/>
            </g>
            <g transform="matrix(2.676035,-0,-0,2.987807,-1057.39457,-345.138645)">
                <path d="M781.631,200.201C803.527,206.967 821.762,217.638 836.338,232.213C860.142,256.018 897.425,302.345 852.195,393.965L803.968,372.012C833.683,308.165 806.582,278.972 792.979,265.369C777.677,250.066 753.872,242.415 721.566,242.415C685.859,242.415 661.205,249.216 647.602,262.819C635.7,274.721 629.749,288.324 629.749,303.626C629.749,318.929 633.15,329.981 639.951,336.783C648.453,345.284 663.755,353.786 685.859,362.287C724.967,379.291 769.175,398.844 818.484,420.948C832.087,426.049 844.839,434.551 856.741,446.453C875.445,465.157 884.797,487.261 884.797,512.765C884.797,546.772 872.894,575.677 849.09,599.482C823.585,624.986 781.927,637.739 724.117,637.739C668.006,637.739 624.648,622.436 594.042,591.83C571.938,569.726 560.886,537.42 560.886,494.912L619.547,494.912C619.547,525.518 626.348,547.622 639.951,561.224C658.654,579.928 687.56,589.28 726.667,589.28C762.374,589.28 788.729,580.778 805.732,563.775C819.334,550.172 826.136,536.57 826.136,522.967C826.136,507.664 821.035,494.912 810.833,484.71C802.331,476.209 788.729,467.707 770.025,459.205C753.022,450.704 730.918,440.502 703.713,428.6C673.107,414.997 648.453,403.945 629.749,395.444C616.146,390.343 604.244,382.691 594.042,372.489C578.74,357.186 571.088,336.783 571.088,311.278C571.088,278.972 582.99,250.917 606.795,227.112C620.146,213.761 637.509,204.154 658.883,198.291L721.258,236.898L781.631,200.201Z" style="fill:rgb(66,184,131);stroke:rgb(66,184,131);stroke-width:18.99px;stroke-linejoin:miter;stroke-miterlimit:2;"/>
            </g>
            <g transform="matrix(3.189858,-0,-0,3.561493,-1429.792098,-535.700075)">
                <path d="M674.016,194.885C686.923,192.565 701.073,191.405 716.465,191.405C735.097,191.405 752.136,193.105 767.581,196.504L721.695,224.396L674.016,194.885Z" style="fill:rgb(0,44,23);"/>
                <path d="M674.016,194.885C686.923,192.565 701.073,191.405 716.465,191.405C735.097,191.405 752.136,193.105 767.581,196.504L721.695,224.396L674.016,194.885ZM685.04,197.138L721.714,219.837L756.959,198.414C744.439,196.33 730.941,195.291 716.465,195.291C705.329,195.291 694.854,195.906 685.04,197.138Z" style="fill:rgb(0,44,23);"/>
            </g>
        </g>
    </g>
</svg>
